<?xml version="1.0" encoding="UTF-8" standalone="no"?>
<svg
   version="1.1"
   id="svg2"
   xmlSpace="preserve"
   width="75"
   height="75"
   viewBox="0 0 2666.6582 2666.6582"
   xmlns="http://www.w3.org/2000/svg"
   xmlnsSvg="http://www.w3.org/2000/svg"><defs
     id="defs6"><clipPath
       clipPathUnits="userSpaceOnUse"
       id="clipPath22"><path
         d="m 13473.2,11377.8 c -584.9,1473.7 -1690.5,3072.1 -3286.2,4751 -1.5,1.6 -3.2,2.9 -4.7,4.4 -1.6,1.6 -2.9,3.3 -4.6,4.8 -1.6,1.6 -3.3,2.8 -4.9,4.3 -3.4,3.1 -6.8,6 -10.4,8.9 -3.2,2.6 -6.4,5.1 -9.7,7.5 -3.6,2.7 -7.3,5.3 -11.1,7.8 -3.4,2.2 -6.8,4.3 -10.3,6.4 -3.8,2.3 -7.6,4.4 -11.5,6.4 -3.7,1.9 -7.3,3.8 -11,5.5 -3.9,1.8 -7.8,3.4 -11.7,5 -3.9,1.6 -7.8,3.1 -11.7,4.5 -3.9,1.3 -7.8,2.6 -11.8,3.8 -4,1.1 -8,2.2 -12.1,3.2 -4,1 -8,1.9 -12,2.6 -4.1,0.8 -8.1,1.5 -12.2,2.1 -4.1,0.6 -8.2,1.1 -12.4,1.5 -4,0.4 -8,0.7 -12.1,0.9 -4.2,0.2 -8.4,0.3 -12.7,0.3 -3.93,0 -7.86,-0.1 -11.81,-0.3 -4.33,-0.2 -8.64,-0.5 -12.96,-1 -3.86,-0.3 -7.69,-0.8 -11.52,-1.3 -4.36,-0.6 -8.7,-1.4 -13.03,-2.2 -3.77,-0.8 -7.52,-1.6 -11.26,-2.5 -4.29,-1 -8.54,-2.2 -12.79,-3.5 -3.74,-1.1 -7.46,-2.3 -11.16,-3.5 -4.11,-1.5 -8.18,-3 -12.23,-4.7 -3.76,-1.5 -7.48,-3.1 -11.18,-4.8 -3.84,-1.8 -7.64,-3.7 -11.41,-5.7 -3.78,-2 -7.52,-4 -11.22,-6.2 -3.54,-2.1 -7.03,-4.3 -10.49,-6.6 -3.74,-2.5 -7.41,-5 -11.05,-7.7 -3.28,-2.4 -6.51,-4.9 -9.69,-7.5 -3.56,-2.9 -7.05,-5.9 -10.48,-9 -1.59,-1.4 -3.29,-2.7 -4.86,-4.2 -1.57,-1.5 -2.91,-3.1 -4.44,-4.6 -1.57,-1.6 -3.26,-3 -4.8,-4.6 -1940.92,-2042.1 -3150.24,-3957 -3594.37,-5691.6 -363.35,-1419 -221.9,-2720.8 420.38,-3869.1 47.17,-84.3 134.73,-131.8 224.96,-131.8 42.54,0 85.68,10.5 125.45,32.8 124.11,69.4 168.45,226.3 99.03,350.4 -575.61,1029.1 -700.42,2203.3 -370.96,3490 407.9,1593.1 1511.73,3363.8 3281.99,5265.9 1448.6,-1556.5 2455.2,-3030.7 2993.2,-4384.7 463.9,-1167.6 584,-2257.7 356.9,-3240 -248.2,-1073.8 -897.7,-2014.1 -1930.3,-2794.8 -449,-339.5 -877.3,-573.5 -1162.2,-711.8 v 1226 l 2522.5,2368.2 c 103.6,97.3 108.8,260.2 11.5,363.9 -97.4,103.7 -260.3,108.8 -364,11.5 l -2170,-2037.2 v 1853.2 l 480.7,451.2 c 103.6,97.4 108.8,260.3 11.5,364 -97.4,103.7 -260.3,108.8 -364,11.5 L 10257.8,8936 v 2280.5 l 1501.6,1409.7 c 103.6,97.3 108.8,260.2 11.4,363.9 -97.3,103.7 -260.2,108.8 -363.9,11.5 l -1149.1,-1078.8 v 2758.1 c 0,142.2 -115.3,257.5 -257.4,257.5 -142.25,0 -257.53,-115.3 -257.53,-257.5 V 10789.8 L 8211.96,12227 c -103.68,97.4 -266.63,92.2 -363.96,-11.4 -97.33,-103.7 -92.19,-266.7 11.48,-364 L 9742.87,10083.4 V 8124.3 L 8316.82,9463.1 c -103.67,97.4 -266.63,92.2 -363.95,-11.4 -97.34,-103.7 -92.2,-266.7 11.49,-364 L 9742.87,7418 V 5888 L 8211.96,7325.2 c -103.68,97.4 -266.63,92.2 -363.96,-11.5 -97.33,-103.6 -92.19,-266.6 11.48,-363.9 L 9742.87,5181.6 v -737.1 c -502.39,244.7 -1451.96,788 -2183.46,1685.9 -89.82,110.2 -251.99,126.8 -362.25,36.9 -110.24,-89.8 -126.8,-252 -36.97,-362.2 1129.7,-1386.6 2685.14,-1973.4 2750.79,-1997.7 1.58,-0.6 3.19,-1 4.78,-1.5 4.51,-1.6 9.05,-3.1 13.65,-4.4 2.57,-0.7 5.14,-1.4 7.72,-2.1 4.4,-1.1 8.83,-2.1 13.29,-3 2.64,-0.5 5.26,-1 7.9,-1.5 4.62,-0.7 9.29,-1.3 13.96,-1.8 2.36,-0.3 4.73,-0.6 7.09,-0.8 6.69,-0.6 13.42,-0.9 20.19,-0.9 0.23,0 0.44,-0.1 0.74,-0.1 v 0 h 0.1 c 0.2,0 0.5,0.1 0.7,0.1 6.8,0 13.5,0.3 20.2,0.9 2.4,0.2 4.8,0.5 7.2,0.8 4.6,0.5 9.2,1.1 13.7,1.8 2.8,0.5 5.6,1 8.3,1.6 4.3,0.9 8.5,1.8 12.7,2.8 2.8,0.8 5.6,1.5 8.5,2.3 4.1,1.3 8.3,2.6 12.4,4 1.9,0.7 3.8,1.1 5.6,1.8 31.7,11.7 785.7,294.5 1626.5,926.9 495.6,372.7 919.1,790.7 1258.6,1242.3 428,569.1 722.8,1192.8 876.2,1853.6 252.3,1086.6 125.2,2280.2 -377.8,3547.6 z"
         id="path20" /></clipPath><linearGradient
       x1="0"
       y1="0"
       x2="1"
       y2="0"
       gradientUnits="userSpaceOnUse"
       gradientTransform="matrix(7241.23,-8641.99,-8641.99,-7241.23,6180.57,13979.6)"
       spreadMethod="pad"
       id="linearGradient30"><stop
         style="stop-opacity:1;stop-color:#d5ff3c"
         offset="0"
         id="stop24" /><stop
         style="stop-opacity:1;stop-color:#007c2d"
         offset="1"
         id="stop26" /><stop
         style="stop-opacity:1;stop-color:#007c2d"
         offset="1"
         id="stop28" /></linearGradient><clipPath
       clipPathUnits="userSpaceOnUse"
       id="clipPath40"><path
         d="m 7619.2,9507.4 c 68.63,0 137.1,27.3 187.77,81.2 97.34,103.7 92.2,266.7 -11.48,364 l -458.01,430 c -103.69,97.3 -266.64,92.2 -363.96,-11.5 -97.33,-103.7 -92.19,-266.6 11.48,-363.9 l 458.02,-430.1 c 49.7,-46.6 113.01,-69.7 176.18,-69.7 z"
         id="path38" /></clipPath><linearGradient
       x1="0"
       y1="0"
       x2="1"
       y2="0"
       gradientUnits="userSpaceOnUse"
       gradientTransform="matrix(7241.23,-8641.99,-8641.99,-7241.23,4922.26,12925.3)"
       spreadMethod="pad"
       id="linearGradient48"><stop
         style="stop-opacity:1;stop-color:#d5ff3c"
         offset="0"
         id="stop42" /><stop
         style="stop-opacity:1;stop-color:#007c2d"
         offset="1"
         id="stop44" /><stop
         style="stop-opacity:1;stop-color:#007c2d"
         offset="1"
         id="stop46" /></linearGradient><clipPath
       clipPathUnits="userSpaceOnUse"
       id="clipPath58"><path
         d="m 11011.6,9290.5 c 50.7,-54 119.1,-81.2 187.8,-81.2 63.1,0 126.4,23.1 176.1,69.7 l 1404.8,1318.8 c 103.6,97.4 108.8,260.3 11.5,364 -97.4,103.6 -260.3,108.8 -364,11.5 L 11023.1,9654.5 c -103.7,-97.4 -108.8,-260.3 -11.5,-364 z"
         id="path56" /></clipPath><linearGradient
       x1="0"
       y1="0"
       x2="1"
       y2="0"
       gradientUnits="userSpaceOnUse"
       gradientTransform="matrix(7241.23,-8641.99,-8641.99,-7241.23,7644.78,15206.5)"
       spreadMethod="pad"
       id="linearGradient66"><stop
         style="stop-opacity:1;stop-color:#d5ff3c"
         offset="0"
         id="stop60" /><stop
         style="stop-opacity:1;stop-color:#007c2d"
         offset="1"
         id="stop62" /><stop
         style="stop-opacity:1;stop-color:#007c2d"
         offset="1"
         id="stop64" /></linearGradient></defs><namedview
     id="namedview4"
     pagecolor="#ffffff"
     bordercolor="#666666"
     borderopacity="1.0"
     pageshadow="2"
     pageopacity="0.0"
     pagecheckerboard="0" /><g
     id="g8"
     groupmode="layer"
     label="ink_ext_XXXXXX"
     transform="matrix(1.3333333,0,0,-1.3333333,0,2666.6582)"><g
       id="g10"
       transform="scale(0.1)"><g
         id="g12"
         transform="scale(1.22699)"><path
           d="M 16300,0 H 0 V 16300 H 16300 V 0"
           style="fill:#ffffff;fill-opacity:1;fill-rule:nonzero;stroke:none"
           id="path14" /></g><g
         id="g16"><g
           id="g18"
           clip-path="url(#clipPath22)"><path
             d="m 13473.2,11377.8 c -584.9,1473.7 -1690.5,3072.1 -3286.2,4751 -1.5,1.6 -3.2,2.9 -4.7,4.4 -1.6,1.6 -2.9,3.3 -4.6,4.8 -1.6,1.6 -3.3,2.8 -4.9,4.3 -3.4,3.1 -6.8,6 -10.4,8.9 -3.2,2.6 -6.4,5.1 -9.7,7.5 -3.6,2.7 -7.3,5.3 -11.1,7.8 -3.4,2.2 -6.8,4.3 -10.3,6.4 -3.8,2.3 -7.6,4.4 -11.5,6.4 -3.7,1.9 -7.3,3.8 -11,5.5 -3.9,1.8 -7.8,3.4 -11.7,5 -3.9,1.6 -7.8,3.1 -11.7,4.5 -3.9,1.3 -7.8,2.6 -11.8,3.8 -4,1.1 -8,2.2 -12.1,3.2 -4,1 -8,1.9 -12,2.6 -4.1,0.8 -8.1,1.5 -12.2,2.1 -4.1,0.6 -8.2,1.1 -12.4,1.5 -4,0.4 -8,0.7 -12.1,0.9 -4.2,0.2 -8.4,0.3 -12.7,0.3 -3.93,0 -7.86,-0.1 -11.81,-0.3 -4.33,-0.2 -8.64,-0.5 -12.96,-1 -3.86,-0.3 -7.69,-0.8 -11.52,-1.3 -4.36,-0.6 -8.7,-1.4 -13.03,-2.2 -3.77,-0.8 -7.52,-1.6 -11.26,-2.5 -4.29,-1 -8.54,-2.2 -12.79,-3.5 -3.74,-1.1 -7.46,-2.3 -11.16,-3.5 -4.11,-1.5 -8.18,-3 -12.23,-4.7 -3.76,-1.5 -7.48,-3.1 -11.18,-4.8 -3.84,-1.8 -7.64,-3.7 -11.41,-5.7 -3.78,-2 -7.52,-4 -11.22,-6.2 -3.54,-2.1 -7.03,-4.3 -10.49,-6.6 -3.74,-2.5 -7.41,-5 -11.05,-7.7 -3.28,-2.4 -6.51,-4.9 -9.69,-7.5 -3.56,-2.9 -7.05,-5.9 -10.48,-9 -1.59,-1.4 -3.29,-2.7 -4.86,-4.2 -1.57,-1.5 -2.91,-3.1 -4.44,-4.6 -1.57,-1.6 -3.26,-3 -4.8,-4.6 -1940.92,-2042.1 -3150.24,-3957 -3594.37,-5691.6 -363.35,-1419 -221.9,-2720.8 420.38,-3869.1 47.17,-84.3 134.73,-131.8 224.96,-131.8 42.54,0 85.68,10.5 125.45,32.8 124.11,69.4 168.45,226.3 99.03,350.4 -575.61,1029.1 -700.42,2203.3 -370.96,3490 407.9,1593.1 1511.73,3363.8 3281.99,5265.9 1448.6,-1556.5 2455.2,-3030.7 2993.2,-4384.7 463.9,-1167.6 584,-2257.7 356.9,-3240 -248.2,-1073.8 -897.7,-2014.1 -1930.3,-2794.8 -449,-339.5 -877.3,-573.5 -1162.2,-711.8 v 1226 l 2522.5,2368.2 c 103.6,97.3 108.8,260.2 11.5,363.9 -97.4,103.7 -260.3,108.8 -364,11.5 l -2170,-2037.2 v 1853.2 l 480.7,451.2 c 103.6,97.4 108.8,260.3 11.5,364 -97.4,103.7 -260.3,108.8 -364,11.5 L 10257.8,8936 v 2280.5 l 1501.6,1409.7 c 103.6,97.3 108.8,260.2 11.4,363.9 -97.3,103.7 -260.2,108.8 -363.9,11.5 l -1149.1,-1078.8 v 2758.1 c 0,142.2 -115.3,257.5 -257.4,257.5 -142.25,0 -257.53,-115.3 -257.53,-257.5 V 10789.8 L 8211.96,12227 c -103.68,97.4 -266.63,92.2 -363.96,-11.4 -97.33,-103.7 -92.19,-266.7 11.48,-364 L 9742.87,10083.4 V 8124.3 L 8316.82,9463.1 c -103.67,97.4 -266.63,92.2 -363.95,-11.4 -97.34,-103.7 -92.2,-266.7 11.49,-364 L 9742.87,7418 V 5888 L 8211.96,7325.2 c -103.68,97.4 -266.63,92.2 -363.96,-11.5 -97.33,-103.6 -92.19,-266.6 11.48,-363.9 L 9742.87,5181.6 v -737.1 c -502.39,244.7 -1451.96,788 -2183.46,1685.9 -89.82,110.2 -251.99,126.8 -362.25,36.9 -110.24,-89.8 -126.8,-252 -36.97,-362.2 1129.7,-1386.6 2685.14,-1973.4 2750.79,-1997.7 1.58,-0.6 3.19,-1 4.78,-1.5 4.51,-1.6 9.05,-3.1 13.65,-4.4 2.57,-0.7 5.14,-1.4 7.72,-2.1 4.4,-1.1 8.83,-2.1 13.29,-3 2.64,-0.5 5.26,-1 7.9,-1.5 4.62,-0.7 9.29,-1.3 13.96,-1.8 2.36,-0.3 4.73,-0.6 7.09,-0.8 6.69,-0.6 13.42,-0.9 20.19,-0.9 0.23,0 0.44,-0.1 0.74,-0.1 v 0 h 0.1 c 0.2,0 0.5,0.1 0.7,0.1 6.8,0 13.5,0.3 20.2,0.9 2.4,0.2 4.8,0.5 7.2,0.8 4.6,0.5 9.2,1.1 13.7,1.8 2.8,0.5 5.6,1 8.3,1.6 4.3,0.9 8.5,1.8 12.7,2.8 2.8,0.8 5.6,1.5 8.5,2.3 4.1,1.3 8.3,2.6 12.4,4 1.9,0.7 3.8,1.1 5.6,1.8 31.7,11.7 785.7,294.5 1626.5,926.9 495.6,372.7 919.1,790.7 1258.6,1242.3 428,569.1 722.8,1192.8 876.2,1853.6 252.3,1086.6 125.2,2280.2 -377.8,3547.6"
             style="fill:url(#linearGradient30);fill-opacity:1;fill-rule:nonzero;stroke:none"
             id="path32" /></g></g><g
         id="g34"><g
           id="g36"
           clip-path="url(#clipPath40)"><path
             d="m 7619.2,9507.4 c 68.63,0 137.1,27.3 187.77,81.2 97.34,103.7 92.2,266.7 -11.48,364 l -458.01,430 c -103.69,97.3 -266.64,92.2 -363.96,-11.5 -97.33,-103.7 -92.19,-266.6 11.48,-363.9 l 458.02,-430.1 c 49.7,-46.6 113.01,-69.7 176.18,-69.7"
             style="fill:url(#linearGradient48);fill-opacity:1;fill-rule:nonzero;stroke:none"
             id="path50" /></g></g><g
         id="g52"><g
           id="g54"
           clip-path="url(#clipPath58)"><path
             d="m 11011.6,9290.5 c 50.7,-54 119.1,-81.2 187.8,-81.2 63.1,0 126.4,23.1 176.1,69.7 l 1404.8,1318.8 c 103.6,97.4 108.8,260.3 11.5,364 -97.4,103.6 -260.3,108.8 -364,11.5 L 11023.1,9654.5 c -103.7,-97.4 -108.8,-260.3 -11.5,-364"
             style="fill:url(#linearGradient66);fill-opacity:1;fill-rule:nonzero;stroke:none"
             id="path68" /></g></g></g></g></svg>
